<svg width="24" height="24" viewBox="0 0 24 24" fill="none" xmlns="http://www.w3.org/2000/svg">
<path fill-rule="evenodd" clip-rule="evenodd" d="M12 5C10.7801 5 9.61005 5.4847 8.74737 6.34754C7.88468 7.21038 7.4 8.38068 7.4 9.60099V13.6017C7.4 14.0893 7.29528 14.5662 7.09827 15.0021H16.9017C16.7047 14.5662 16.6 14.0893 16.6 13.6017V9.60099C16.6 8.38068 16.1153 7.21038 15.2526 6.34754C14.3899 5.4847 13.2199 5 12 5ZM20 15.0021C19.6288 15.0021 19.2727 14.8546 19.0101 14.592C18.7475 14.3294 18.6 13.9732 18.6 13.6017V9.60099C18.6 7.85036 17.9047 6.17139 16.667 4.93345C15.4292 3.6955 13.7505 3 12 3C10.2495 3 8.57076 3.6955 7.33303 4.93345C6.09531 6.17139 5.4 7.85036 5.4 9.60099V13.6017C5.4 13.9732 5.25246 14.3294 4.98989 14.592C4.72732 14.8546 4.37125 15.0021 4 15.0021C3.44772 15.0021 3 15.4498 3 16.0021C3 16.5544 3.44772 17.0021 4 17.0021H20C20.5523 17.0021 21 16.5544 21 16.0021C21 15.4498 20.5523 15.0021 20 15.0021ZM10.1143 18.3377C10.592 18.0606 11.204 18.2232 11.481 18.701C11.5338 18.792 11.6095 18.8675 11.7006 18.9199C11.7917 18.9724 11.8949 19 12 19C12.1051 19 12.2083 18.9724 12.2994 18.9199C12.3905 18.8675 12.4662 18.792 12.519 18.701C12.796 18.2232 13.408 18.0606 13.8857 18.3377C14.3635 18.6147 14.5261 19.2267 14.249 19.7044C14.0205 20.0984 13.6925 20.4255 13.2978 20.6529C12.903 20.8803 12.4555 21 12 21C11.5445 21 11.097 20.8803 10.7022 20.6529C10.3075 20.4255 9.9795 20.0984 9.75096 19.7044C9.47388 19.2267 9.63655 18.6147 10.1143 18.3377Z" fill="black"/>
</svg>
