<svg width="24" height="24" viewBox="0 0 24 24" fill="none" xmlns="http://www.w3.org/2000/svg">
<path fill-rule="evenodd" clip-rule="evenodd" d="M5.77778 5C5.34822 5 5 5.34822 5 5.77778V18.2222C5 18.5309 5.17979 18.7975 5.44036 18.9232L14.8484 9.51512C15.239 9.1246 15.8721 9.1246 16.2627 9.51512L19 12.2525V5.77778C19 5.34822 18.6518 5 18.2222 5H5.77778ZM19 15.0809L15.5555 11.6364L8.19199 19H18.2222C18.6518 19 19 18.6518 19 18.2222V15.0809ZM5.7813 21H18.2222C19.7563 21 21 19.7563 21 18.2222V5.77778C21 4.24365 19.7563 3 18.2222 3H5.77778C4.24365 3 3 4.24365 3 5.77778V18.2222C3 19.7553 4.24203 20.9984 5.77477 21C5.77695 21 5.77913 21 5.7813 21ZM8.88889 8.55554C8.7048 8.55554 8.55556 8.70478 8.55556 8.88888C8.55556 9.07297 8.7048 9.22221 8.88889 9.22221C9.07299 9.22221 9.22222 9.07297 9.22222 8.88888C9.22222 8.70478 9.07299 8.55554 8.88889 8.55554ZM6.55556 8.88888C6.55556 7.60021 7.60023 6.55554 8.88889 6.55554C10.1776 6.55554 11.2222 7.60021 11.2222 8.88888C11.2222 10.1775 10.1776 11.2222 8.88889 11.2222C7.60023 11.2222 6.55556 10.1775 6.55556 8.88888Z" fill="black"/>
</svg>
