<svg width="24" height="24" viewBox="0 0 24 24" fill="none" xmlns="http://www.w3.org/2000/svg">
<path fill-rule="evenodd" clip-rule="evenodd" d="M3.125 6C3.125 5.44772 3.57272 5 4.125 5H19.875C20.4273 5 20.875 5.44772 20.875 6C20.875 6.55228 20.4273 7 19.875 7H4.125C3.57272 7 3.125 6.55228 3.125 6ZM3.125 12C3.125 11.4477 3.57272 11 4.125 11H19.875C20.4273 11 20.875 11.4477 20.875 12C20.875 12.5523 20.4273 13 19.875 13H4.125C3.57272 13 3.125 12.5523 3.125 12ZM4.125 17C3.57272 17 3.125 17.4477 3.125 18C3.125 18.5523 3.57272 19 4.125 19H19.875C20.4273 19 20.875 18.5523 20.875 18C20.875 17.4477 20.4273 17 19.875 17H4.125Z" fill="black"/>
</svg>
