<svg width="24" height="24" viewBox="0 0 24 24" fill="none" xmlns="http://www.w3.org/2000/svg">
<path fill-rule="evenodd" clip-rule="evenodd" d="M15.5332 4C14.8714 4 14.2367 4.2629 13.7687 4.73086L5.74273 12.7568C4.94702 13.5525 4.5 14.6318 4.5 15.7571C4.5 16.8824 4.94702 17.9616 5.74273 18.7573C6.53844 19.553 7.61765 20 8.74295 20C9.86825 20 10.9475 19.553 11.7432 18.7573L19.7691 10.7313C20.1597 10.3408 20.7928 10.3408 21.1834 10.7313C21.5739 11.1218 21.5739 11.755 21.1834 12.1455L13.1574 20.1715C11.9866 21.3423 10.3987 22 8.74295 22C7.08721 22 5.4993 21.3423 4.32852 20.1715C3.15774 19.0007 2.5 17.4128 2.5 15.7571C2.5 14.1013 3.15774 12.5134 4.32852 11.3426L12.3545 3.31664C13.1975 2.47361 14.3409 2 15.5332 2C16.7254 2 17.8688 2.47361 18.7118 3.31664C19.5548 4.15967 20.0285 5.30307 20.0285 6.4953C20.0285 7.68752 19.5548 8.83092 18.7118 9.67395L10.6771 17.6999C10.677 17.7001 10.6772 17.6998 10.6771 17.6999C10.1618 18.215 9.46275 18.5047 8.73421 18.5047C8.00549 18.5047 7.30661 18.2152 6.79133 17.6999C6.27605 17.1847 5.98656 16.4858 5.98656 15.7571C5.98656 15.0283 6.27605 14.3295 6.79133 13.8142L14.2064 6.40784C14.5971 6.01755 15.2303 6.01792 15.6206 6.40868C16.0109 6.79943 16.0105 7.4326 15.6198 7.82289L8.20554 15.2284C8.06559 15.3686 7.98656 15.559 7.98656 15.7571C7.98656 15.9553 8.06533 16.1455 8.20554 16.2857C8.34576 16.4259 8.53592 16.5047 8.73421 16.5047C8.9325 16.5047 9.12267 16.4259 9.26288 16.2857L17.2976 8.25974C17.7653 7.79182 18.0285 7.15691 18.0285 6.4953C18.0285 5.8335 17.7656 5.19881 17.2976 4.73086C16.8296 4.2629 16.1949 4 15.5332 4Z" fill="black"/>
</svg>
