<svg width="24" height="24" viewBox="0 0 24 24" fill="none" xmlns="http://www.w3.org/2000/svg">
<path fill-rule="evenodd" clip-rule="evenodd" d="M4 7.19999C4 6.6477 4.44772 6.19999 5 6.19999H19C19.5523 6.19999 20 6.6477 20 7.19999C20 7.75227 19.5523 8.19999 19 8.19999H5C4.44772 8.19999 4 7.75227 4 7.19999Z" fill="black"/>
<path fill-rule="evenodd" clip-rule="evenodd" d="M10.4444 5C10.3063 5 10.168 5.05617 10.0615 5.16571C9.95404 5.27621 9.88886 5.43192 9.88886 5.6V6.2H14.1111V5.6C14.1111 5.43192 14.0459 5.27621 13.9385 5.16571C13.832 5.05617 13.6936 5 13.5555 5H10.4444ZM16.1111 6.2V5.6C16.1111 4.91938 15.8485 4.26117 15.3725 3.77155C14.8955 3.28097 14.2425 3 13.5555 3H10.4444C9.7574 3 9.10443 3.28097 8.62748 3.77155C8.15146 4.26117 7.88886 4.91938 7.88886 5.6V6.2H6.55553C6.00324 6.2 5.55553 6.64772 5.55553 7.2V18.4C5.55553 19.0806 5.81813 19.7388 6.29414 20.2284C6.77109 20.719 7.42407 21 8.11108 21H15.8889C16.5759 21 17.2289 20.719 17.7058 20.2284C18.1818 19.7388 18.4444 19.0806 18.4444 18.4V7.2C18.4444 6.64772 17.9967 6.2 17.4444 6.2H16.1111ZM7.55553 8.2V18.4C7.55553 18.5681 7.62071 18.7238 7.72813 18.8343C7.83463 18.9438 7.97298 19 8.11108 19H15.8889C16.027 19 16.1653 18.9438 16.2718 18.8343C16.3792 18.7238 16.4444 18.5681 16.4444 18.4V8.2H7.55553Z" fill="black"/>
<path fill-rule="evenodd" clip-rule="evenodd" d="M10 10C10.5523 10 11 10.4477 11 11V15.8C11 16.3523 10.5523 16.8 10 16.8C9.44772 16.8 9 16.3523 9 15.8V11C9 10.4477 9.44772 10 10 10Z" fill="black"/>
<path fill-rule="evenodd" clip-rule="evenodd" d="M14 10C14.5523 10 15 10.4477 15 11V15.8C15 16.3523 14.5523 16.8 14 16.8C13.4477 16.8 13 16.3523 13 15.8V11C13 10.4477 13.4477 10 14 10Z" fill="black"/>
</svg>
