<svg width="24" height="24" viewBox="0 0 24 24" fill="none" xmlns="http://www.w3.org/2000/svg">
<path fill-rule="evenodd" clip-rule="evenodd" d="M4 15C4.55228 15 5 15.4477 5 16V18.4C5 18.5231 5.0534 18.6654 5.18966 18.7881C5.3294 18.9138 5.53948 19 5.77778 19H18.2222C18.4605 19 18.6706 18.9138 18.8103 18.7881C18.9466 18.6654 19 18.5231 19 18.4V16C19 15.4477 19.4477 15 20 15C20.5523 15 21 15.4477 21 16V18.4C21 19.1256 20.6788 19.7972 20.1483 20.2747C19.6212 20.749 18.9269 21 18.2222 21H5.77778C5.07308 21 4.37879 20.749 3.85173 20.2747C3.3212 19.7972 3 19.1256 3 18.4V16C3 15.4477 3.44772 15 4 15Z" fill="black"/>
<path fill-rule="evenodd" clip-rule="evenodd" d="M12 3C12.2701 3 12.5287 3.10926 12.717 3.30292L15.8281 6.50292C16.2131 6.89891 16.2042 7.53201 15.8082 7.917C15.4122 8.30198 14.7791 8.29306 14.3941 7.89708L12 5.43456L9.60588 7.89708C9.2209 8.29306 8.58779 8.30198 8.19181 7.917C7.79582 7.53201 7.78691 6.89891 8.17189 6.50292L11.283 3.30292C11.4713 3.10926 11.7299 3 12 3Z" fill="black"/>
<path fill-rule="evenodd" clip-rule="evenodd" d="M12 3C12.5523 3 13 3.44772 13 4V15.2C13 15.7523 12.5523 16.2 12 16.2C11.4477 16.2 11 15.7523 11 15.2V4C11 3.44772 11.4477 3 12 3Z" fill="black"/>
</svg>
