<svg width="24" height="24" viewBox="0 0 24 24" fill="none" xmlns="http://www.w3.org/2000/svg">
<path fill-rule="evenodd" clip-rule="evenodd" d="M21 12C21 16.9706 16.9706 21 12 21C7.02944 21 3 16.9706 3 12C3 7.02944 7.02944 3 12 3C16.9706 3 21 7.02944 21 12ZM16.7572 7.19781C17.1484 7.58765 17.1484 8.2197 16.7572 8.60953L13.3787 11.9762L16.7572 15.3428C17.1484 15.7327 17.1484 16.3647 16.7572 16.7546C16.366 17.1444 15.7317 17.1444 15.3405 16.7546L11.962 13.3879L8.58342 16.7546C8.19221 17.1444 7.55793 17.1444 7.16672 16.7546C6.77551 16.3647 6.77551 15.7327 7.16672 15.3428L10.5453 11.9762L7.16674 8.60953C6.77553 8.2197 6.77553 7.58765 7.16674 7.19781C7.55795 6.80797 8.19223 6.80797 8.58344 7.19781L11.962 10.5645L15.3405 7.19781C15.7317 6.80797 16.366 6.80797 16.7572 7.19781Z" fill="black"/>
</svg>
